<svg width="40" height="31" viewBox="0 0 40 31" fill="none" xmlns="http://www.w3.org/2000/svg">
<path fill-rule="evenodd" clip-rule="evenodd" d="M0.914788 0.00155918H38.8437C38.9161 0.00242204 38.9854 0.0318197 39.0363 0.0833772C39.0872 0.134935 39.1158 0.204496 39.1158 0.276976C39.1151 0.343976 39.0893 0.408287 39.0437 0.457309L37.4207 2.25736C36.7812 2.96456 36.0006 3.52984 35.1292 3.91669C34.2578 4.30355 33.315 4.50339 32.3615 4.50332H7.37725C6.42389 4.50298 5.48118 4.30296 4.60982 3.91613C3.73847 3.5293 2.9578 2.96424 2.3181 2.25736L0.678716 0.457309C0.642083 0.415659 0.618881 0.363918 0.612145 0.30886C0.60541 0.253802 0.615457 0.197994 0.640969 0.148741C0.666481 0.0994882 0.706271 0.0590864 0.755128 0.0328249C0.803985 0.00656335 0.859634 -0.00433422 0.914788 0.00155918Z" fill="#DA121A"/>
<path fill-rule="evenodd" clip-rule="evenodd" d="M0.914821 30.0778H38.8699C38.9226 30.0776 38.9742 30.0621 39.0183 30.0332C39.0623 30.0043 39.0971 29.9633 39.1183 29.915C39.1395 29.8667 39.1462 29.8134 39.1376 29.7613C39.129 29.7093 39.1055 29.6609 39.0699 29.622L37.4306 27.8253C36.7939 27.1196 36.0166 26.5549 35.1487 26.1676C34.2808 25.7802 33.3415 25.5787 32.3911 25.576H7.40352C6.44982 25.5762 5.50676 25.7764 4.6353 26.1639C3.76384 26.5513 2.98338 27.1173 2.34437 27.8253L0.70498 29.622C0.67067 29.6616 0.648363 29.7102 0.640676 29.762C0.63299 29.8138 0.640242 29.8668 0.661583 29.9146C0.682923 29.9624 0.717467 30.0032 0.76116 30.0321C0.804853 30.061 0.855884 30.0769 0.908264 30.0778H0.914821Z" fill="#F5A623"/>
<path fill-rule="evenodd" clip-rule="evenodd" d="M39.6339 28.6482L39.752 1.35894C39.7524 1.32321 39.7458 1.28773 39.7325 1.25455C39.7192 1.22136 39.6995 1.19112 39.6746 1.16555C39.6496 1.13997 39.6198 1.11956 39.587 1.10549C39.5541 1.09142 39.5188 1.08395 39.4831 1.08353C39.4141 1.08419 39.3477 1.10981 39.2962 1.15566L37.483 2.79505C36.781 3.42953 36.2187 4.20323 35.832 5.06691C35.4454 5.93058 35.2427 6.86531 35.2371 7.81157L35.1486 22.1661C35.1428 23.1201 35.3388 24.0645 35.7236 24.9375C36.1084 25.8105 36.6733 26.5924 37.3814 27.2318L39.1782 28.8712C39.2178 28.9055 39.2663 28.9278 39.3181 28.9355C39.37 28.9431 39.4229 28.9359 39.4707 28.9145C39.5186 28.8932 39.5594 28.8587 39.5883 28.815C39.6172 28.7713 39.633 28.7202 39.6339 28.6679V28.6482Z" fill="#0D9EDA"/>
<path fill-rule="evenodd" clip-rule="evenodd" d="M0.121316 28.6482L4.3344e-07 1.35894C-0.000124195 1.28865 0.0266316 1.22097 0.074788 1.16977C0.122944 1.11856 0.188857 1.08771 0.259024 1.08353C0.327157 1.08344 0.392783 1.10922 0.442636 1.15566L2.2558 2.79505C2.96128 3.4279 3.52712 4.20085 3.91721 5.06458C4.3073 5.92832 4.51308 6.86387 4.52143 7.81157L4.60668 22.1661C4.61241 23.1201 4.41645 24.0645 4.03165 24.9375C3.64686 25.8105 3.08191 26.5924 2.37383 27.2318L0.577066 28.8712C0.537476 28.9055 0.488921 28.9278 0.4371 28.9355C0.385279 28.9431 0.332341 28.9359 0.284497 28.9146C0.236653 28.8932 0.195887 28.8587 0.166984 28.815C0.13808 28.7713 0.122238 28.7202 0.121316 28.6679V28.6482Z" fill="#13B04B"/>
<path d="M32.9351 6H6.82625C6.36993 6 6 6.36993 6 6.82625V23.2464C6 23.7027 6.36993 24.0726 6.82625 24.0726H32.9351C33.3915 24.0726 33.7614 23.7027 33.7614 23.2464V6.82625C33.7614 6.36993 33.3915 6 32.9351 6Z" fill="url(#paint0_linear_2038_5989)"/>
<path d="M10.2913 17.3122L10.8578 16.5273C10.8578 16.5273 11.4808 17.1342 12.29 17.1342C12.727 17.1342 13.1235 16.9076 13.1235 16.4382C13.1235 15.4106 10.4127 15.5886 10.4127 13.8245C10.4127 12.8697 11.2381 12.1576 12.3386 12.1576C13.4715 12.1576 14.0541 12.7726 14.0541 12.7726L13.6009 13.6222C13.6009 13.6222 13.0507 13.1205 12.3305 13.1205C11.845 13.1205 11.4647 13.4037 11.4647 13.8083C11.4647 14.8279 14.1674 14.5771 14.1674 16.414C14.1674 17.3284 13.4715 18.0971 12.2739 18.0971C10.9953 18.0971 10.2913 17.3122 10.2913 17.3122ZM15.2089 18V12.2547H17.4261C18.5024 12.2547 19.2549 13.0072 19.2549 14.1239C19.2549 15.2406 18.5024 16.0175 17.4261 16.0175H16.2528V18H15.2089ZM16.2528 15.1111H17.2319C17.8388 15.1111 18.1949 14.7227 18.1949 14.1239C18.1949 13.5332 17.8388 13.1529 17.2481 13.1529H16.2528V15.1111ZM20.1795 18V12.2547H22.3967C23.473 12.2547 24.2255 13.0072 24.2255 14.1239C24.2255 15.2406 23.473 16.0175 22.3967 16.0175H21.2234V18H20.1795ZM21.2234 15.1111H22.2025C22.8094 15.1111 23.1655 14.7227 23.1655 14.1239C23.1655 13.5332 22.8094 13.1529 22.2187 13.1529H21.2234V15.1111ZM24.7617 15.1192C24.7617 13.4523 26.0159 12.1576 27.7234 12.1576C29.1314 12.1576 29.8596 12.8858 29.8596 12.8858L29.3418 13.6627C29.3418 13.6627 28.7268 13.1124 27.8124 13.1124C26.5257 13.1124 25.8379 14.0025 25.8379 15.0869C25.8379 16.333 26.6876 17.1422 27.7638 17.1422C28.6297 17.1422 29.2042 16.5434 29.2042 16.5434V15.8718H28.3222V14.9736H30.1429V18H29.2527V17.7249C29.2527 17.6035 29.2608 17.4821 29.2608 17.4821H29.2447C29.2447 17.4821 28.6458 18.0971 27.5777 18.0971C26.0645 18.0971 24.7617 16.9238 24.7617 15.1192Z" fill="white"/>
<defs>
<linearGradient id="paint0_linear_2038_5989" x1="11.7433" y1="14.6742" x2="19.5255" y2="6.57608" gradientUnits="userSpaceOnUse">
<stop stop-color="#1DB766"/>
<stop offset="1" stop-color="#0D9EDA"/>
</linearGradient>
</defs>
</svg>
