<svg width="24" height="24" viewBox="0 0 24 24" fill="none" xmlns="http://www.w3.org/2000/svg">
<rect width="24" height="24" fill="#110637"/>
<path d="M8.5 15.5V15.2786L8.80048 15.1943C8.95628 15.1521 9.07499 15.0889 9.1566 15.0045C9.24563 14.9202 9.31611 14.8042 9.36804 14.6566L11.6161 8.5H12.5397L14.7766 14.6988C14.836 14.8534 14.9028 14.9729 14.9769 15.0572C15.0511 15.1345 15.1698 15.1978 15.3331 15.247L15.5 15.2892V15.5H12.6733V15.2892L12.8625 15.2364C13.0257 15.1872 13.1222 15.1099 13.1518 15.0045C13.1889 14.8991 13.1815 14.7691 13.1296 14.6145L12.6622 13.2545H10.2027L9.72417 14.5934C9.67223 14.748 9.65739 14.8745 9.67965 14.9729C9.70191 15.0713 9.79465 15.1486 9.95787 15.2048L10.2027 15.2786V15.5H8.5ZM10.314 12.9488H12.562L11.4714 9.7756L10.314 12.9488Z" fill="white"/>
</svg>
