<svg width="24" height="24" viewBox="0 0 24 24" fill="none" xmlns="http://www.w3.org/2000/svg">
<rect width="24" height="24" fill="#110637"/>
<path d="M12.792 16.176C12.016 16.176 11.316 16.016 10.692 15.696C10.068 15.376 9.572 14.904 9.204 14.28C8.844 13.656 8.664 12.896 8.664 12C8.664 11.328 8.772 10.732 8.988 10.212C9.212 9.69197 9.516 9.25597 9.9 8.90397C10.292 8.54397 10.74 8.27597 11.244 8.09997C11.748 7.91597 12.284 7.82397 12.852 7.82397C13.292 7.82397 13.704 7.87597 14.088 7.97997C14.472 8.07597 14.84 8.21997 15.192 8.41197L15.24 9.98397H14.916L14.412 9.03597C14.332 8.87597 14.244 8.73197 14.148 8.60397C14.06 8.47597 13.944 8.38397 13.8 8.32797C13.6 8.23197 13.364 8.18397 13.092 8.18397C12.62 8.18397 12.188 8.30397 11.796 8.54397C11.412 8.78397 11.104 9.18397 10.872 9.74397C10.64 10.296 10.524 11.052 10.524 12.012C10.524 12.964 10.632 13.72 10.848 14.28C11.072 14.84 11.372 15.24 11.748 15.48C12.124 15.712 12.548 15.828 13.02 15.828C13.236 15.828 13.412 15.812 13.548 15.78C13.684 15.748 13.82 15.704 13.956 15.648C14.116 15.584 14.24 15.492 14.328 15.372C14.416 15.244 14.492 15.1 14.556 14.94L15.012 13.848H15.336L15.288 15.576C14.944 15.768 14.564 15.916 14.148 16.02C13.732 16.124 13.28 16.176 12.792 16.176Z" fill="white"/>
</svg>
