<svg width="24" height="24" viewBox="0 0 24 24" fill="none" xmlns="http://www.w3.org/2000/svg">
<rect width="24" height="24" fill="#110637"/>
<path d="M9.04797 15.9661V15.7141L9.28797 15.6421C9.45597 15.5861 9.56397 15.5141 9.61197 15.4261C9.65997 15.3301 9.68397 15.1981 9.68397 15.0301V8.95806C9.68397 8.79806 9.65997 8.67406 9.61197 8.58606C9.56397 8.49006 9.45997 8.41406 9.29997 8.35806L9.04797 8.28606V8.03406H12.024V8.28606L11.796 8.35806C11.644 8.41406 11.54 8.49006 11.484 8.58606C11.436 8.68206 11.412 8.81406 11.412 8.98206V15.6061H13.176C13.448 15.6061 13.652 15.5381 13.788 15.4021C13.924 15.2661 14.052 15.0701 14.172 14.8141L14.616 13.8181H14.952L14.832 15.9661H9.04797Z" fill="white"/>
</svg>
