<svg width="24" height="24" viewBox="0 0 24 24" fill="none" xmlns="http://www.w3.org/2000/svg">
<rect width="24" height="24" fill="#110637"/>
<path d="M4.53911 15.864V15.612L4.88711 15.516C5.03911 15.476 5.14311 15.4 5.19911 15.288C5.26311 15.176 5.29511 15.04 5.29511 14.88V9.07201C5.22311 8.92001 5.15911 8.80801 5.10311 8.73601C5.05511 8.65601 5.00311 8.58801 4.94711 8.53201C4.89111 8.47601 4.81511 8.41201 4.71911 8.34001L4.50311 8.18401V7.93201H6.55511L10.5391 13.38V8.92801C10.5391 8.76801 10.5111 8.62801 10.4551 8.50801C10.4071 8.38801 10.3031 8.30801 10.1431 8.26801L9.78311 8.18401V7.93201H11.5711V8.18401L11.2711 8.26801C11.1191 8.31601 11.0231 8.40001 10.9831 8.52001C10.9511 8.63201 10.9351 8.76801 10.9351 8.92801V15.912H10.2631L5.69111 9.62401V14.868C5.69111 15.036 5.71511 15.176 5.76311 15.288C5.81111 15.4 5.91111 15.476 6.06311 15.516L6.38711 15.612V15.864H4.53911Z" fill="white"/>
<path d="M15.9209 16.068C15.3209 16.068 14.7889 15.96 14.3249 15.744C13.8689 15.528 13.5089 15.188 13.2449 14.724C12.9889 14.252 12.8609 13.632 12.8609 12.864V11.568C12.8609 11.12 12.8609 10.668 12.8609 10.212C12.8609 9.75601 12.8569 9.29601 12.8489 8.83201C12.8489 8.52001 12.7009 8.32401 12.4049 8.24401L12.1409 8.18401V7.93201H15.3809V8.18401L15.0449 8.25601C14.7409 8.32801 14.5889 8.52801 14.5889 8.85601C14.5809 9.30401 14.5769 9.75601 14.5769 10.212C14.5769 10.66 14.5769 11.112 14.5769 11.568V13.092C14.5769 13.868 14.7329 14.428 15.0449 14.772C15.3649 15.116 15.8169 15.288 16.4009 15.288C17.0169 15.288 17.4969 15.104 17.8409 14.736C18.1929 14.36 18.3689 13.804 18.3689 13.068V8.89201C18.3689 8.73201 18.3369 8.59201 18.2729 8.47201C18.2089 8.35201 18.0969 8.27601 17.9369 8.24401L17.6489 8.18401V7.93201H19.4969V8.18401L19.1609 8.25601C19.0089 8.28801 18.9049 8.36001 18.8489 8.47201C18.7929 8.58401 18.7649 8.72001 18.7649 8.88001V12.996C18.7649 13.988 18.5049 14.748 17.9849 15.276C17.4649 15.804 16.7769 16.068 15.9209 16.068Z" fill="white"/>
</svg>
