<svg width="25" height="25" viewBox="0 0 25 25" fill="none" xmlns="http://www.w3.org/2000/svg">
<rect width="24" height="24" transform="translate(0.482483 0.0679932)" fill="#1C4F4A"/>
<path d="M7.9765 16.0341V15.7701L8.2165 15.6981C8.3685 15.6501 8.4725 15.5741 8.5285 15.4701C8.5845 15.3581 8.6125 15.2141 8.6125 15.0381V9.09805C8.6125 8.93805 8.5925 8.81005 8.5525 8.71405C8.5125 8.61005 8.4125 8.53005 8.2525 8.47405L7.9765 8.36605V8.10205H10.2685L12.5245 13.9701L14.6485 8.10205H16.9885V8.36605L16.7965 8.42605C16.6445 8.47405 16.5405 8.55005 16.4845 8.65405C16.4285 8.75005 16.4005 8.87805 16.4005 9.03805C16.3925 9.50205 16.3885 9.96605 16.3885 10.4301C16.3885 10.8861 16.3885 11.3501 16.3885 11.8221V12.3141C16.3885 12.7781 16.3885 13.2421 16.3885 13.7061C16.3885 14.1701 16.3925 14.6301 16.4005 15.0861C16.4005 15.2541 16.4205 15.3821 16.4605 15.4701C16.5005 15.5581 16.5965 15.6301 16.7485 15.6861L16.9885 15.7701V16.0341H14.0725V15.7701L14.3365 15.6861C14.4885 15.6301 14.5805 15.5581 14.6125 15.4701C14.6525 15.3741 14.6725 15.2461 14.6725 15.0861V12.4821L14.6965 9.26605L12.2485 16.0341H11.5765L8.9965 9.33805L9.0445 12.0741V15.0501C9.0445 15.2261 9.0685 15.3661 9.1165 15.4701C9.1645 15.5741 9.2645 15.6461 9.4165 15.6861L9.6565 15.7701V16.0341H7.9765Z" fill="white"/>
</svg>
